<svg width="22" height="22" viewBox="0 0 22 22" fill="none" xmlns="http://www.w3.org/2000/svg">
<path d="M13.1667 17.5L20.75 17.5M1.25 17.5H3.41667M3.41667 17.5C3.41667 18.2183 3.70201 18.9072 4.20992 19.4151C4.71783 19.923 5.40671 20.2083 6.125 20.2083C6.84329 20.2083 7.53217 19.923 8.04008 19.4151C8.54799 18.9072 8.83333 18.2183 8.83333 17.5C8.83333 16.7817 8.54799 16.0928 8.04008 15.5849C7.53217 15.077 6.84329 14.7917 6.125 14.7917C5.40671 14.7917 4.71783 15.077 4.20992 15.5849C3.70201 16.0928 3.41667 16.7817 3.41667 17.5ZM19.6667 11H20.75M1.25 11L8.83333 11M12.0833 4.49999L20.75 4.49999M12.0833 4.49999C12.0833 3.7817 11.798 3.09282 11.2901 2.58491C10.7822 2.077 10.0933 1.79166 9.375 1.79166C8.65671 1.79166 7.96783 2.077 7.45992 2.58491C6.95201 3.09282 6.66667 3.7817 6.66667 4.49999C6.66667 5.21828 6.95201 5.90716 7.45992 6.41507C7.96783 6.92298 8.65671 7.20832 9.375 7.20832C10.0933 7.20832 10.7822 6.92298 11.2901 6.41507C11.798 5.90716 12.0833 5.21828 12.0833 4.49999ZM1.25 4.49999H2.33333M15.875 13.7083C15.1567 13.7083 14.4678 13.423 13.9599 12.9151C13.452 12.4072 13.1667 11.7183 13.1667 11C13.1667 10.2817 13.452 9.59282 13.9599 9.08491C14.4678 8.577 15.1567 8.29166 15.875 8.29166C16.5933 8.29166 17.2822 8.577 17.7901 9.08491C18.298 9.59282 18.5833 10.2817 18.5833 11C18.5833 11.7183 18.298 12.4072 17.7901 12.9151C17.2822 13.423 16.5933 13.7083 15.875 13.7083Z" stroke="#CDFF48" stroke-width="2" stroke-linecap="round" stroke-linejoin="round"/>
</svg>
