<svg width="32" height="32" viewBox="0 0 32 32" fill="none" xmlns="http://www.w3.org/2000/svg">
<path d="M19.3333 26H31M1 26H4.33333M4.33333 26C4.33333 27.1051 4.77232 28.1649 5.55372 28.9463C6.33512 29.7277 7.39493 30.1667 8.5 30.1667C9.60507 30.1667 10.6649 29.7277 11.4463 28.9463C12.2277 28.1649 12.6667 27.1051 12.6667 26C12.6667 24.8949 12.2277 23.8351 11.4463 23.0537C10.6649 22.2723 9.60507 21.8333 8.5 21.8333C7.39493 21.8333 6.33512 22.2723 5.55372 23.0537C4.77232 23.8351 4.33333 24.8949 4.33333 26ZM29.3333 16H31M1 16H12.6667M17.6667 6.00001L31 6.00001M17.6667 6.00001C17.6667 4.89494 17.2277 3.83513 16.4463 3.05373C15.6649 2.27233 14.6051 1.83334 13.5 1.83334C12.3949 1.83334 11.3351 2.27233 10.5537 3.05373C9.77232 3.83513 9.33333 4.89494 9.33333 6.00001C9.33333 7.10508 9.77232 8.16489 10.5537 8.94629C11.3351 9.72769 12.3949 10.1667 13.5 10.1667C14.6051 10.1667 15.6649 9.72769 16.4463 8.94629C17.2277 8.16489 17.6667 7.10508 17.6667 6.00001ZM1 6.00001H2.66667M23.5 20.1667C22.3949 20.1667 21.3351 19.7277 20.5537 18.9463C19.7723 18.1649 19.3333 17.1051 19.3333 16C19.3333 14.8949 19.7723 13.8351 20.5537 13.0537C21.3351 12.2723 22.3949 11.8333 23.5 11.8333C24.6051 11.8333 25.6649 12.2723 26.4463 13.0537C27.2277 13.8351 27.6667 14.8949 27.6667 16C27.6667 17.1051 27.2277 18.1649 26.4463 18.9463C25.6649 19.7277 24.6051 20.1667 23.5 20.1667Z" stroke="white" stroke-width="2" stroke-linecap="round" stroke-linejoin="round"/>
</svg>
